# xmcd
#
# Track frame offsets:
#	150
#	26960
#	44792
#	63275
#	77735
#	99210
#	114185
#	131677
#	147905
#	163880
#	187257
#	204072
#	217022
#	235715
#	260095
#	276222
#	292612
#	309362
#	326707
#	339612
#
# Disc length: 4703
#
# Revision: 4
# Processed by: cddbd v1.5.1PL0 Copyright (c) Steve Scherf et al.
# Submitted via: EasyCDDAExtractor 7.0.5.1
# Normalized: r3:DSETVAR1
#
DISCID=2d125d14
DTITLE=Various Artist - Les voix en or vol2 - cd2
DYEAR=1996
DGENRE=Blues
TTITLE0=Eurythmics and Aretha Francklin - Sisters are doin' it for themselves
TTITLE1=Enya - Oronoco flow
TTITLE2=Mecano - Une femme avec une femme
TTITLE3=Otis Redding - I've got dreams to remember
TTITLE4=Tori Amos - Crucify
TTITLE5=James Taylor - Fire and rain
TTITLE6=Kool and the gang - Cherish
TTITLE7=Nilda Fernandez - Madrid Madrid
TTITLE8=Linda Rondstad and Aaron Neville - Don't know much
TTITLE9=Jevetta Steele - Calling you
TTITLE10=Korgis - Everybody got to learn sometime
TTITLE11=Ella Fitzgerald and Louis Armstrong - You won't  be satisfied until you
TTITLE12=Sarah Vaughan - Something
TTITLE13=Julie Coventon - Don't cry for me argentina
TTITLE14=Beverly Craven - Promise me
TTITLE15=Pat Benatar - We belong
TTITLE16=Joe Cocker - I heard it through the  grapevine
TTITLE17=Oscar Benton - Bensonhurst blues
TTITLE18=Huey Lewis and The News - Naturally
TTITLE19=Manhattan Transfer - Chanson d'amour
EXTD=
EXTT0=
EXTT1=
EXTT2=
EXTT3=
EXTT4=
EXTT5=
EXTT6=
EXTT7=
EXTT8=
EXTT9=
EXTT10=
EXTT11=
EXTT12=
EXTT13=
EXTT14=
EXTT15=
EXTT16=
EXTT17=
EXTT18=
EXTT19=
PLAYORDER=
